<?xml version="1.0" encoding="utf-8"?>
<!-- Generator: Adobe Illustrator 19.0.0, SVG Export Plug-In . SVG Version: 6.00 Build 0)  -->
<svg version="1.1" id="Layer_1" xmlns="http://www.w3.org/2000/svg" xmlns:xlink="http://www.w3.org/1999/xlink" x="0px" y="0px"
	 viewBox="69 3.9 188 45.1" style="enable-background:new 69 3.9 188 45.1;" xml:space="preserve">
<style type="text/css">
	.st0{fill:#FFFFFF;}
	.st1{fill:#231F20;}
	.st2{fill:#31A049;}
	.st3{fill:#EDA029;}
	.st4{fill:#632F1C;}
	.st5{fill:#0DB04B;}
	.st6{fill:#2C9043;}
</style>
<g id="Logo-White_3">
	<path id="XMLID_20_" class="st0" d="M96.4-48.8c-0.4-9.7,9.8-10.1,12.1-3.3c3.6,29.1-29,36-38,22.7C75.8-22.6,104-26.7,96.4-48.8
		L96.4-48.8z"/>
	<path id="XMLID_19_" class="st0" d="M91-55.3c8.9,1.4,10.3-9.2,3.6-12c-27.8-5.5-36.7,27.7-24.2,37.9C64.2-35.5,70-64.1,91-55.3
		L91-55.3z"/>
	<g id="XMLID_12_">
		<path id="XMLID_18_" class="st0" d="M139.5-41.1c0,1.8-0.6,3.3-1.9,4.3c-1.2,1-2.8,1.5-4.6,1.5h-14.4v-3.3H133
			c0.9,0,1.7-0.2,2.4-0.6c0.8-0.5,1.1-1.2,1.1-2c0-0.8-0.4-1.5-1.2-1.9c-0.6-0.4-1.5-0.6-2.4-0.6h-8.8c-1.7,0-3.1-0.5-4.2-1.4
			c-1.2-1-1.8-2.3-1.8-3.9c0-1.6,0.6-2.8,1.8-3.9c1.1-0.9,2.5-1.4,4.2-1.4h14.3v3.3h-14.3c-0.6,0-1.2,0.2-1.6,0.6
			c-0.4,0.3-0.7,0.8-0.7,1.4c0,0.6,0.2,1.1,0.7,1.4c0.4,0.3,1,0.5,1.6,0.5h8.9c1.8,0,3.3,0.6,4.6,1.6
			C138.9-44.3,139.5-42.8,139.5-41.1z"/>
		<path id="XMLID_17_" class="st0" d="M145.8-35.2h-3.3v-18.9h3.3L145.8-35.2L145.8-35.2z M161.7-35.2h-3.3v-7.9h-11.1v-3.3h11.1
			v-7.8h3.3C161.7-54.2,161.7-35.2,161.7-35.2z"/>
		<path id="XMLID_16_" class="st0" d="M189.4-35.2h-4.2l-3.2-5.3h-9l2-3.3h5l-3.3-5.5l-8.5,14h-4.2l10.3-17.1
			c0.3-0.4,0.6-0.8,1.1-1.2c0.6-0.4,1-0.6,1.5-0.6c0.5,0,1,0.2,1.5,0.6c0.4,0.3,0.8,0.8,1.1,1.2L189.4-35.2z"/>
		<path id="XMLID_15_" class="st0" d="M209.8-36.8c0,1.2-0.4,1.8-1.2,1.8c-0.6,0-1.3-0.3-2.1-1.1l-12.1-12.2v13.2h-3.3v-17.3
			c0-0.4,0.1-0.8,0.3-1.2c0.2-0.3,0.6-0.5,1-0.5c0.6,0,1.2,0.3,1.9,1L206.5-41v-13.2h3.3V-36.8z"/>
		<path id="XMLID_14_" class="st0" d="M231.4-50.8h-7.5v15.7h-3.3v-15.7h-7.5v-3.3h18.2V-50.8z"/>
		<path id="XMLID_13_" class="st0" d="M252.4-35.2h-4.2l-3.2-5.3h-9l2-3.3h5l-3.3-5.5l-8.5,14h-4.2l10.3-17.1
			c0.3-0.4,0.6-0.8,1.1-1.2c0.6-0.4,1-0.6,1.5-0.6c0.5,0,1,0.2,1.5,0.6c0.4,0.3,0.8,0.8,1.1,1.2L252.4-35.2z"/>
	</g>
	<g id="XMLID_3_">
		<path id="XMLID_11_" class="st0" d="M119.1-27h2.9V-30h0.6v6.7H122v-3h-2.9v3h-0.6V-30h0.6V-27z"/>
		<path id="XMLID_10_" class="st0" d="M144-26.7c0,0.9-0.3,1.7-1,2.3s-1.5,1-2.5,1s-1.8-0.3-2.5-1s-1-1.4-1-2.3s0.3-1.7,1-2.3
			s1.5-1,2.5-1s1.8,0.3,2.5,1S144-27.6,144-26.7z M143.4-26.7c0-0.8-0.3-1.4-0.8-1.9s-1.2-0.8-2.1-0.8s-1.5,0.3-2,0.8
			c-0.6,0.5-0.8,1.1-0.8,1.9c0,0.8,0.3,1.4,0.8,1.9c0.6,0.5,1.2,0.8,2,0.8c0.8,0,1.5-0.3,2.1-0.8C143.1-25.3,143.4-26,143.4-26.7z"
			/>
		<path id="XMLID_9_" class="st0" d="M158.3-23.5v-6.7h0.6v6h2.1v0.6H158.3z"/>
		<path id="XMLID_8_" class="st0" d="M175.5-23.5v-6.7h0.6v6.7H175.5z M176-24.1c0.8,0,1.5-0.3,2-0.8c0.6-0.6,0.8-1.2,0.8-1.9
			s-0.3-1.4-0.8-1.9c-0.6-0.6-1.2-0.8-2-0.8v-0.6c1,0,1.7,0.3,2.4,1c0.7,0.7,1,1.5,1,2.4c0,0.9-0.3,1.7-1,2.4c-0.7,0.6-1.5,1-2.5,1
			L176-24.1L176-24.1z"/>
		<path id="XMLID_7_" class="st0" d="M193.9-30.1h0.6v6.7h-0.6V-30.1z"/>
		<path id="XMLID_6_" class="st0" d="M209.6-28.9v5.5h-0.6V-30h0.6l2.9,5.5V-30h0.6v6.7h-0.6L209.6-28.9z"/>
		<path id="XMLID_5_" class="st0" d="M230.9-23.5c-1,0-1.7-0.3-2.4-1c-0.7-0.6-1-1.4-1-2.3c0-0.9,0.3-1.7,1-2.3c0.7-0.6,1.5-1,2.4-1
			v0.6c-0.8,0-1.5,0.3-2,0.8c-0.6,0.5-0.8,1.1-0.8,1.9c0,0.8,0.3,1.4,0.8,1.9c0.6,0.5,1.2,0.8,2,0.8V-23.5z M232.6-28.9
			c-0.5-0.3-1-0.6-1.7-0.6V-30c0.9,0,1.7,0.3,2.4,0.9L232.6-28.9z M233.6-26.2c-0.1,0.6-0.5,1.1-1,1.5c-0.5,0.3-1.1,0.6-1.7,0.6v0.6
			c0.8,0,1.5-0.3,2.2-0.8c0.6-0.5,1-1.1,1.2-1.9C234.3-26.2,233.6-26.2,233.6-26.2z M232.4-26.2v-0.6h1.9v0.6H232.4z"/>
		<path id="XMLID_4_" class="st0" d="M249.7-23.4c-0.3,0-0.6,0-0.8-0.1c-0.3-0.1-0.5-0.1-0.7-0.3c-0.1-0.1-0.3-0.3-0.6-0.6l0.6-0.3
			c0.1,0.1,0.3,0.3,0.6,0.4c0.2,0.1,0.6,0.2,1,0.2L249.7-23.4L249.7-23.4z M252-25.4c0,0.6-0.2,1-0.6,1.4c-0.4,0.4-0.9,0.6-1.5,0.6
			c-0.1,0-0.1,0-0.2,0V-24c0.1,0,0.1,0,0.2,0c0.3,0,0.7-0.1,1-0.4c0.3-0.3,0.4-0.6,0.4-1c0-0.5-0.6-0.9-1.6-1.3
			c-1.2-0.6-1.9-1.2-1.9-1.8c0-0.5,0.2-0.8,0.6-1.2c0.3-0.3,0.8-0.5,1.2-0.4v0.6c-0.3,0-0.6,0.1-0.8,0.3c-0.2,0.2-0.3,0.4-0.4,0.7
			c-0.1,0.4,0.3,0.8,1.2,1.2c0.4,0.1,0.8,0.3,1.1,0.6C251.6-26.4,252-25.9,252-25.4z M250.8-28.7c-0.1-0.1-0.1-0.1-0.1-0.2
			c-0.1-0.1-0.2-0.3-0.3-0.3c-0.2-0.1-0.4-0.2-0.7-0.2v-0.6c0.4,0,0.8,0.1,1.1,0.3c0.2,0.1,0.3,0.4,0.6,0.8L250.8-28.7z"/>
	</g>
	<rect x="54.4" y="75.2" class="st0" width="188" height="45"/>
	<g>
		<path class="st1" d="M118.1,11.3c0,0-0.6,0.5-1.3-0.2c0,0-1.5-1.6-2.3-1.2l0-0.1c0.8-0.4,2.3,1.2,2.3,1.2
			C117.5,11.7,118.1,11.2,118.1,11.3L118.1,11.3"/>
		<path class="st1" d="M116.1,11.5c0,0-2.3-0.2-2.6,0.1l0-0.1C113.9,11.3,116.1,11.5,116.1,11.5L116.1,11.5"/>
		<path class="st1" d="M116.8,12.1c0,0-2.8-0.4-3.2,0.1l0-0.1C114.1,11.6,116.8,12,116.8,12.1L116.8,12.1"/>
		<path class="st1" d="M117.7,12.5c0,0-3.6,0.2-3.9,0.5l0-0.1C114.1,12.6,117.7,12.4,117.7,12.5L117.7,12.5"/>
		<path class="st1" d="M117.8,11.4c0,0-1.1-0.8-1.1-1.3c0,0-0.3-0.9-0.9-0.8l0-0.1c0.6,0,0.9,0.8,0.9,0.8c0,0.5,1,1.2,1,1.2
			L117.8,11.4"/>
		<polyline class="st0" points="117.5,8.3 117.8,8.3 117.8,8.1 117.5,8 117.5,8.3 		"/>
		<polyline class="st0" points="116.4,9.4 116.6,9.4 116.6,9.1 116.4,9.1 116.4,9.4 		"/>
		<path class="st0" d="M115,10c0,0,0.2-0.1,0.3-0.2c0.2-0.1,0.3-0.3,0.3-0.3c0,0-0.2,0.1-0.3,0.3C115.1,9.9,115,10,115,10"/>
		<polyline class="st0" points="114.3,10.7 114.5,10.7 114.5,10.5 114.3,10.5 114.3,10.7 		"/>
		<polyline class="st0" points="113.6,12 113.9,11.8 113.9,11.8 113.8,11.9 113.6,12 		"/>
		<polyline class="st0" points="114.1,13.8 114.3,13.7 114.4,13.6 114.2,13.7 114.1,13.8 		"/>
		<polyline class="st0" points="113.9,12.7 114.1,12.7 114.2,12.5 113.9,12.5 113.9,12.7 		"/>
		<g>
			<path class="st1" d="M144.6,13.1c0.3-0.8,0.5-2.1,0.7-3.7c0.2-1.2,0.4-2,0.6-2.4c0.2-0.4,0.5-0.7,0.8-0.7c0.2,0,0.4,0.2,0.4,0.5
				c0,0.2,0,0.4-0.1,0.4c-0.1,0.1-0.2,0.1-0.4,0.2c-0.2,0-0.4,0.2-0.5,0.4c-0.2,0.2-0.3,0.8-0.4,1.5l-0.3,2
				c-0.1,0.7-0.2,1.3-0.4,1.8c-0.1,0.5-0.3,0.9-0.4,1.1c-0.1,0.2-0.2,0.4-0.2,0.4c0,0-0.1,0-0.2,0.1l-0.5,0.1c-0.1,0-0.2,0-0.2-0.1
				c0-0.1,0-0.3-0.1-0.8c0-0.4,0-0.8-0.1-1c0-0.2-0.1-0.8-0.3-1.8c-0.1-1-0.2-2-0.3-3c0,0-0.1,0.6-0.4,1.7c-0.2,1.1-0.4,1.8-0.5,2.2
				c-0.1,0.4-0.2,0.8-0.4,1.2c-0.2,0.4-0.4,0.8-0.6,1.1c-0.2,0.3-0.5,0.4-0.9,0.4c-0.3,0-0.5-0.1-0.7-0.4c-0.2-0.2-0.3-0.5-0.3-0.7
				c0-0.1,0.1-0.3,0.3-0.6c0.2-0.3,0.4-0.4,0.5-0.4c0.1,0,0.2,0.1,0.2,0.4c0,0.3,0.1,0.5,0.2,0.6c0.1,0.1,0.2,0.2,0.3,0.2
				c0.4,0,0.9-1.1,1.3-3.3l0.1-0.7c0.3-1.3,0.5-2.2,0.6-2.8l0.1-0.6c0-0.1,0.1-0.2,0.1-0.2c0,0,0.1-0.1,0.2-0.1l0.5-0.1
				c0.1,0,0.1,0,0.2,0c0.1,0,0.1,0,0.1,0.1c0,0,0,0.1,0,0.2c0,0.8,0.1,2,0.3,3.4C144.5,11.5,144.6,12.5,144.6,13.1z"/>
			<path class="st1" d="M149.6,13.5c-0.4,0.5-0.7,0.9-1,1.1c-0.3,0.2-0.6,0.3-1,0.3c-0.4,0-0.7-0.2-1-0.5c-0.3-0.3-0.4-0.8-0.4-1.4
				c0-0.8,0.2-1.6,0.7-2.3c0.4-0.7,0.9-1,1.5-1c0.3,0,0.5,0.1,0.7,0.3c0.2,0.2,0.3,0.4,0.3,0.7c0,0.8-0.7,1.5-2,2
				c0.1,0.8,0.4,1.2,0.9,1.2c0.2,0,0.4-0.1,0.6-0.2c0.2-0.1,0.4-0.5,0.8-0.9V13.5z M147.2,12.4c0.8-0.3,1.1-0.8,1.1-1.6
				c0-0.4-0.1-0.6-0.3-0.6c-0.2,0-0.4,0.2-0.6,0.6C147.3,11.2,147.2,11.7,147.2,12.4z"/>
		</g>
		<g>
			<path class="st1" d="M154.8,13.5c-0.7,1-1.4,1.4-2,1.4c-0.5,0-0.9-0.4-1-1.2c-0.3,0.8-0.7,1.2-1.2,1.2c-0.2,0-0.4-0.1-0.6-0.2
				c-0.2-0.1-0.3-0.3-0.3-0.5c0-0.1,0.1-0.2,0.3-0.4c0.2-0.2,0.3-0.3,0.3-0.3c0,0,0.1,0.1,0.1,0.2c0.1,0.3,0.2,0.5,0.4,0.5
				c0.2,0,0.4-0.2,0.5-0.6c0.2-0.4,0.3-0.9,0.4-1.5c0.1-0.6,0.1-1,0.1-1.1c0-0.4-0.1-0.6-0.4-0.6c-0.3,0-0.7,0.5-1.2,1.6
				c-0.3,0.6-0.5,1-0.8,1.3h-0.1v-0.5c0.2-0.2,0.3-0.5,0.5-0.9c0.4-0.8,0.7-1.4,1-1.7c0.3-0.4,0.6-0.5,0.9-0.5
				c0.5,0,0.8,0.4,0.9,1.2c0.2-0.4,0.3-0.7,0.5-0.9c0.2-0.2,0.4-0.3,0.6-0.3c0.2,0,0.4,0.1,0.5,0.3c0.1,0.2,0.2,0.4,0.2,0.5
				c0,0.1-0.1,0.2-0.2,0.4c-0.2,0.2-0.3,0.3-0.3,0.3c0,0-0.1-0.1-0.1-0.2c0-0.1,0-0.3-0.1-0.4c-0.1-0.1-0.1-0.2-0.2-0.2
				c-0.2,0-0.5,0.4-0.6,1.2c-0.2,0.8-0.3,1.4-0.3,1.9c0,0.2,0,0.4,0.1,0.5c0.1,0.1,0.2,0.2,0.3,0.2c0.4,0,0.9-0.5,1.6-1.4V13.5z"/>
			<path class="st1" d="M157.4,13.5c-0.4,0.5-0.7,0.9-1,1.1c-0.3,0.2-0.5,0.3-0.8,0.3c-0.3,0-0.5-0.1-0.6-0.4
				c-0.2-0.3-0.2-0.7-0.2-1.1c0-0.4,0.1-1,0.2-1.6l0.2-0.9l-0.4,0l0.1-0.9l0.4,0l0.4-1.8l1.2-0.3l-0.5,2.1l0.7,0l-0.2,0.9l-0.7,0.1
				l-0.3,1.3c-0.1,0.5-0.2,0.8-0.2,1.1c0,0.2,0,0.3,0.1,0.5c0.1,0.1,0.2,0.2,0.3,0.2c0.2,0,0.3-0.1,0.5-0.2c0.2-0.1,0.4-0.4,0.7-0.8
				V13.5z"/>
			<path class="st1" d="M165.6,13.5c-0.2,0.3-0.6,0.7-1.2,1c-0.1,1-0.4,1.8-0.8,2.4c-0.4,0.6-0.9,0.9-1.4,0.9
				c-0.2,0-0.4-0.1-0.6-0.2c-0.1-0.1-0.2-0.4-0.2-0.6c0-0.7,0.5-1.4,1.6-2.1c0.1-0.5,0.2-1,0.3-1.4c-0.2,0.4-0.5,0.7-0.8,1
				c-0.4,0.3-0.7,0.4-1,0.4c-0.5,0-0.9-0.3-1.3-0.9c-0.3-0.6-0.5-1.3-0.5-2.2c0-0.9,0.2-1.8,0.6-2.6c0.4-0.8,0.9-1.5,1.5-2
				c0.6-0.5,1.2-0.7,1.8-0.7c0.5,0,0.9,0.2,1.3,0.6c0.3,0.4,0.5,0.9,0.5,1.5c0,0.7-0.2,1.2-0.5,1.7c-0.4,0.5-0.8,0.8-1.3,0.8
				c-0.3,0-0.5-0.1-0.7-0.3c-0.2-0.2-0.3-0.4-0.3-0.7c0-0.2,0-0.3,0.1-0.4c0.1-0.1,0.2-0.2,0.2-0.2c0.1,0,0.1,0.1,0.1,0.2
				c0,0.1,0,0.2,0.1,0.3c0.1,0.1,0.2,0.1,0.2,0.1c0.2,0,0.5-0.2,0.7-0.6c0.2-0.4,0.3-0.9,0.3-1.4c0-0.3-0.1-0.6-0.3-0.8
				c-0.2-0.2-0.4-0.3-0.7-0.3c-0.4,0-0.8,0.2-1.2,0.7c-0.4,0.5-0.7,1.1-0.9,1.9c-0.2,0.8-0.4,1.5-0.4,2.2c0,0.6,0.1,1.1,0.3,1.5
				c0.2,0.4,0.5,0.6,0.8,0.6c0.6,0,1.2-0.6,1.7-1.7l0.9-0.2c0.1,0,0.2,0,0.2,0.1c0,0,0,0.2-0.1,0.5c-0.1,0.3-0.2,0.8-0.3,1.5
				c0.5-0.4,0.8-0.7,1.1-1.2V13.5z M163,15.4c-0.8,0.5-1.2,1-1.2,1.5c0,0.3,0.1,0.4,0.3,0.4C162.5,17.3,162.8,16.7,163,15.4z"/>
			<path class="st1" d="M168.9,13.5c-0.4,0.5-0.7,0.9-1,1.1c-0.3,0.2-0.6,0.3-1,0.3c-0.4,0-0.7-0.2-1-0.5c-0.3-0.3-0.4-0.8-0.4-1.4
				c0-0.8,0.2-1.6,0.7-2.3c0.4-0.7,0.9-1,1.5-1c0.3,0,0.5,0.1,0.7,0.3c0.2,0.2,0.3,0.4,0.3,0.7c0,0.8-0.7,1.5-2,2
				c0.1,0.8,0.4,1.2,0.9,1.2c0.2,0,0.4-0.1,0.6-0.2c0.2-0.1,0.4-0.5,0.8-0.9V13.5z M166.6,12.4c0.8-0.3,1.1-0.8,1.1-1.6
				c0-0.4-0.1-0.6-0.3-0.6c-0.2,0-0.4,0.2-0.6,0.6C166.7,11.2,166.6,11.7,166.6,12.4z"/>
			<path class="st1" d="M173.4,13.5c-0.7,1-1.3,1.4-1.8,1.4c-0.2,0-0.4-0.1-0.5-0.3c-0.1-0.2-0.2-0.4-0.2-0.7c0-0.4,0.1-1.1,0.4-1.9
				c0.1-0.5,0.2-0.8,0.2-0.9c0-0.1,0-0.2-0.1-0.2c0,0-0.1,0-0.2,0.1c-0.1,0.1-0.1,0.1-0.2,0.2c-0.1,0.1-0.2,0.2-0.3,0.3
				c-0.1,0.1-0.2,0.2-0.3,0.4l-0.3,0.4c-0.1,0.2-0.2,0.4-0.2,0.6c0,0.3-0.1,0.6-0.1,0.9c0,0.2,0,0.5,0,0.8l-1,0.3c0-0.5,0-0.9,0-1.2
				c0-0.6,0.1-1.2,0.2-1.8c0.1-0.6,0.3-1.2,0.5-1.9l1.1-0.3c-0.2,0.8-0.4,1.4-0.5,1.9c0.5-0.7,0.9-1.2,1.2-1.5
				c0.3-0.3,0.6-0.4,0.8-0.4c0.2,0,0.3,0.1,0.4,0.2c0.1,0.2,0.2,0.3,0.2,0.6c0,0.4-0.1,1-0.4,1.9c-0.2,0.6-0.3,1-0.3,1.2
				c0,0.2,0.1,0.4,0.2,0.4c0.2,0,0.6-0.4,1.1-1.2V13.5z"/>
			<path class="st1" d="M176.7,13.5c-0.4,0.5-0.7,0.9-1,1.1c-0.3,0.2-0.6,0.3-1,0.3c-0.4,0-0.7-0.2-1-0.5c-0.3-0.3-0.4-0.8-0.4-1.4
				c0-0.8,0.2-1.6,0.7-2.3c0.4-0.7,0.9-1,1.5-1c0.3,0,0.5,0.1,0.7,0.3c0.2,0.2,0.3,0.4,0.3,0.7c0,0.8-0.7,1.5-2,2
				c0.1,0.8,0.4,1.2,0.9,1.2c0.2,0,0.4-0.1,0.6-0.2c0.2-0.1,0.4-0.5,0.8-0.9V13.5z M174.4,12.4c0.7-0.3,1.1-0.8,1.1-1.6
				c0-0.4-0.1-0.6-0.3-0.6c-0.2,0-0.4,0.2-0.6,0.6C174.5,11.2,174.4,11.7,174.4,12.4z"/>
			<path class="st1" d="M180.1,13.5c-0.8,1-1.3,1.4-1.7,1.4c-0.2,0-0.3-0.1-0.5-0.3c-0.1-0.2-0.2-0.5-0.2-0.8c0-0.6,0.2-1.3,0.7-2.2
				c-0.2,0.1-0.5,0.3-0.7,0.3c-0.2,0.5-0.5,1-0.9,1.5h-0.1v-0.5c0.2-0.3,0.5-0.7,0.6-1.1c-0.3-0.1-0.4-0.4-0.4-0.7
				c0-0.3,0.1-0.6,0.2-1c0.2-0.3,0.4-0.5,0.7-0.5c0.2,0,0.4,0.2,0.4,0.5c0,0.2-0.1,0.6-0.2,1c0.5-0.1,0.9-0.6,1.3-1.5l0.4,0
				l-0.4,1.5c-0.2,0.6-0.3,1.1-0.3,1.3c-0.1,0.2-0.1,0.4-0.1,0.6c0,0.2,0,0.3,0.1,0.4c0.1,0.1,0.1,0.1,0.2,0.1c0.1,0,0.2,0,0.3-0.1
				c0.1-0.1,0.3-0.4,0.7-0.8V13.5z"/>
			<path class="st1" d="M184.9,13.5c-0.5,0.6-0.8,1-1,1.2c-0.2,0.2-0.4,0.3-0.6,0.3c-0.5,0-0.7-0.5-0.7-1.7c-0.3,0.6-0.6,1-0.8,1.2
				c-0.3,0.3-0.5,0.4-0.8,0.4c-0.3,0-0.5-0.2-0.7-0.5c-0.2-0.3-0.3-0.7-0.3-1.2c0-0.6,0.1-1.2,0.4-1.7c0.2-0.5,0.6-1,1-1.3
				c0.4-0.3,0.7-0.5,1-0.5c0.4,0,0.6,0.2,0.8,0.7l0.9-0.7h0.3l-0.4,1.7c-0.2,0.9-0.3,1.5-0.3,1.8c0,0.3,0.1,0.5,0.3,0.5
				c0.1,0,0.2-0.1,0.4-0.2c0.1-0.2,0.3-0.4,0.6-0.8V13.5z M181.6,13.8c0.3,0,0.6-0.3,0.9-1c0.3-0.7,0.4-1.3,0.4-1.9
				c0-0.2,0-0.4-0.1-0.5c-0.1-0.1-0.2-0.2-0.3-0.2c-0.3,0-0.6,0.3-0.9,1c-0.3,0.7-0.4,1.3-0.4,1.8c0,0.2,0,0.4,0.1,0.5
				C181.4,13.7,181.5,13.8,181.6,13.8z"/>
			<path class="st1" d="M187.6,13.5c-0.4,0.5-0.7,0.9-1,1.1c-0.3,0.2-0.5,0.3-0.8,0.3c-0.3,0-0.5-0.1-0.6-0.4
				c-0.2-0.3-0.2-0.7-0.2-1.1c0-0.4,0.1-1,0.2-1.6l0.2-0.9l-0.4,0l0.1-0.9l0.4,0L186,8l1.2-0.3l-0.5,2.1l0.7,0l-0.2,0.9l-0.7,0.1
				l-0.3,1.3c-0.1,0.5-0.2,0.8-0.2,1.1c0,0.2,0,0.3,0.1,0.5c0.1,0.1,0.2,0.2,0.3,0.2c0.2,0,0.3-0.1,0.5-0.2c0.2-0.1,0.4-0.4,0.7-0.8
				V13.5z"/>
			<path class="st1" d="M189.8,13.5c-0.7,1-1.2,1.4-1.6,1.4c-0.2,0-0.4-0.1-0.5-0.4c-0.1-0.3-0.2-0.6-0.2-1c0-0.8,0.2-2,0.6-3.5
				l1.1-0.3h0.1l-0.4,1.9c-0.2,0.8-0.3,1.3-0.3,1.6c0,0.1,0,0.2,0.1,0.3c0,0.1,0.1,0.1,0.2,0.1c0.1,0,0.2-0.1,0.4-0.2
				c0.1-0.1,0.3-0.3,0.6-0.7V13.5z M189.7,7.4c0,0.9-0.3,1.4-0.8,1.4c-0.3,0-0.5-0.1-0.7-0.3c0.2-0.3,0.3-0.7,0.4-1.2
				c0.2,0.2,0.4,0.3,0.6,0.3C189.3,7.6,189.5,7.6,189.7,7.4z"/>
			<path class="st1" d="M193.8,13.4c-0.2,0.2-0.3,0.3-0.5,0.4c-0.1,0.1-0.3,0.1-0.3,0.1c-0.2,0-0.4-0.1-0.7-0.3
				c-0.4,0.8-0.9,1.3-1.5,1.3c-0.3,0-0.6-0.2-0.8-0.5c-0.2-0.3-0.3-0.8-0.3-1.4c0-0.9,0.2-1.7,0.7-2.3c0.5-0.6,1.1-1,1.7-1
				c0.3,0,0.4,0,0.6,0.1c0.1,0.1,0.2,0.2,0.2,0.3c0,0.1,0,0.2,0,0.4c0,0.7-0.2,1.7-0.5,2.8c0.2,0.2,0.3,0.3,0.5,0.3
				c0.2,0,0.5-0.2,0.8-0.7V13.4z M192.3,10.1c0,0-0.1,0-0.2,0c-0.4,0-0.7,0.3-0.9,0.8c-0.2,0.5-0.3,1.2-0.3,1.9c0,0.4,0,0.7,0.1,0.9
				c0.1,0.2,0.2,0.3,0.4,0.3c0.2,0,0.4-0.3,0.7-0.8c-0.3-0.5-0.4-1-0.4-1.5C191.7,11.1,191.9,10.6,192.3,10.1z"/>
			<path class="st1" d="M198.3,13.5c-0.7,1-1.3,1.4-1.8,1.4c-0.2,0-0.4-0.1-0.5-0.3c-0.1-0.2-0.2-0.4-0.2-0.7c0-0.4,0.1-1.1,0.4-1.9
				c0.1-0.5,0.2-0.8,0.2-0.9c0-0.1,0-0.2-0.1-0.2c0,0-0.1,0-0.2,0.1c-0.1,0.1-0.1,0.1-0.2,0.2c-0.1,0.1-0.2,0.2-0.3,0.3
				c-0.1,0.1-0.2,0.2-0.3,0.4l-0.3,0.4c-0.1,0.2-0.2,0.4-0.2,0.6c0,0.3-0.1,0.6-0.1,0.9c0,0.2,0,0.5,0,0.8l-1,0.3c0-0.5,0-0.9,0-1.2
				c0-0.6,0.1-1.2,0.2-1.8c0.1-0.6,0.3-1.2,0.5-1.9l1.1-0.3c-0.2,0.8-0.4,1.4-0.5,1.9c0.5-0.7,0.9-1.2,1.2-1.5
				c0.3-0.3,0.6-0.4,0.8-0.4c0.2,0,0.3,0.1,0.4,0.2c0.1,0.2,0.2,0.3,0.2,0.6c0,0.4-0.1,1-0.4,1.9c-0.2,0.6-0.3,1-0.3,1.2
				c0,0.2,0.1,0.4,0.2,0.4c0.2,0,0.6-0.4,1.1-1.2V13.5z"/>
			<path class="st1" d="M205.5,7.9c-0.2,0.2-0.3,0.4-0.4,0.7c-0.1,0.3-0.2,0.8-0.2,1.5c-0.1,0.8-0.2,1.4-0.3,1.9
				c-0.1,0.5-0.3,1-0.5,1.4c-0.3,0.4-0.6,0.8-1,1.1c-0.4,0.3-0.8,0.4-1.3,0.4c-0.4,0-0.7-0.1-0.9-0.3c-0.2-0.2-0.3-0.5-0.3-0.9
				c0-0.1,0-0.3,0-0.4c0.1-0.2,0.3-0.3,0.5-0.4c0.2-0.1,0.3-0.2,0.4-0.2c0.1,0,0.2,0.1,0.2,0.3c0,0,0,0.2,0,0.4c0,0.2,0,0.3,0,0.4
				c0,0.5,0.2,0.7,0.5,0.7c0.3,0,0.6-0.3,0.8-0.8c0.2-0.6,0.4-1.4,0.5-2.5c0.1-1.1,0.2-1.8,0.4-2.3c0.2-0.4,0.4-0.7,0.7-1
				c0.3-0.2,0.5-0.3,0.7-0.3C205.3,7.6,205.4,7.7,205.5,7.9z M205.3,10.1c0.3,0,0.6-0.2,0.7-0.5c0.1-0.3,0.2-0.7,0.2-1.1
				c0-0.5-0.1-1-0.4-1.3c-0.3-0.3-0.6-0.5-1.1-0.5c-0.6,0-1.2,0.2-1.7,0.7c-0.5,0.5-0.8,1-0.8,1.6c0,0.3,0.1,0.6,0.4,0.7
				c0.1,0,0.1,0.1,0.1,0.1v0.2c0,0.1-0.1,0.2-0.4,0.3c-0.2,0.1-0.4,0.2-0.5,0.2c-0.1,0-0.2-0.1-0.4-0.4c-0.1-0.2-0.2-0.5-0.2-0.8
				c0-0.5,0.1-1,0.4-1.5c0.3-0.5,0.7-0.9,1.2-1.2c0.5-0.3,1.1-0.5,1.8-0.5c0.7,0,1.3,0.2,1.8,0.6c0.5,0.4,0.7,0.9,0.7,1.6
				c0,0.9-0.5,1.6-1.6,1.9c0.8,0.3,1.2,1,1.2,1.9c0,0.7-0.2,1.3-0.6,1.8c-0.4,0.5-0.9,0.8-1.4,0.8c-0.2,0-0.5-0.1-0.6-0.2
				c-0.2-0.1-0.2-0.3-0.2-0.5c0-0.1,0.1-0.3,0.2-0.5c0.1-0.2,0.2-0.3,0.3-0.3c0.1,0,0.2,0.2,0.2,0.6c0,0.3,0.1,0.4,0.2,0.4
				c0.2,0,0.4-0.3,0.5-0.9c0.2-0.6,0.2-1.2,0.2-1.8c0-0.7-0.2-1.1-0.6-1.2L205.3,10.1z"/>
			<path class="st1" d="M212.4,13.5c-0.4,0.5-0.7,0.9-1,1.1c-0.3,0.2-0.5,0.3-0.7,0.3c-0.2,0-0.4-0.1-0.5-0.4
				c-0.1-0.2-0.2-0.6-0.2-1c-0.3,0.5-0.6,0.8-0.9,1.1c-0.3,0.2-0.5,0.3-0.8,0.3c-0.2,0-0.4-0.1-0.6-0.4c-0.1-0.2-0.2-0.6-0.2-1
				c0-0.8,0.2-2,0.6-3.5l1.2-0.3c-0.5,1.9-0.8,3.1-0.8,3.7c0,0.4,0.1,0.6,0.3,0.6c0.2,0,0.4-0.2,0.6-0.5c0.2-0.3,0.4-0.6,0.4-0.9
				l0.6-2.5l1.2-0.3c-0.3,1.2-0.5,2-0.6,2.5c-0.1,0.5-0.2,0.8-0.2,1c0,0.4,0.1,0.6,0.3,0.6c0.2,0,0.4-0.2,0.7-0.6l0.4-0.5V13.5z"/>
			<path class="st1" d="M214.6,13.5c-0.7,1-1.2,1.4-1.6,1.4c-0.2,0-0.4-0.1-0.5-0.4c-0.1-0.3-0.2-0.6-0.2-1c0-0.8,0.2-2,0.6-3.5
				l1.1-0.3h0.1l-0.4,1.9c-0.2,0.8-0.3,1.3-0.3,1.6c0,0.1,0,0.2,0.1,0.3c0,0.1,0.1,0.1,0.2,0.1c0.1,0,0.2-0.1,0.4-0.2
				c0.1-0.1,0.3-0.3,0.6-0.7V13.5z M214.5,7.4c0,0.9-0.3,1.4-0.8,1.4c-0.3,0-0.5-0.1-0.7-0.3c0.2-0.3,0.3-0.7,0.4-1.2
				c0.2,0.2,0.4,0.3,0.6,0.3C214.2,7.6,214.4,7.6,214.5,7.4z"/>
			<path class="st1" d="M217.6,13.5c-0.4,0.5-0.8,0.9-1.1,1.1c-0.3,0.2-0.6,0.3-0.9,0.3c-0.3,0-0.6-0.2-0.8-0.5
				c-0.2-0.3-0.3-0.8-0.3-1.3c0-0.8,0.1-1.8,0.4-3c0.3-1.2,0.6-2.2,1-3.2l1.2-0.6c0,0,0.1,0,0.1,0c0.1,0,0.2,0.1,0.2,0.3
				c0.1,0.2,0.1,0.4,0.1,0.7c0,0.8-0.1,1.6-0.4,2.3c-0.3,0.8-0.7,1.6-1.3,2.4c0,0.4,0,0.7,0,0.8c0,0.3,0,0.6,0.1,0.8
				c0.1,0.2,0.2,0.3,0.4,0.3c0.2,0,0.3-0.1,0.5-0.2c0.2-0.2,0.5-0.5,0.8-1V13.5z M215.9,11.1c0.4-0.6,0.7-1.2,0.9-1.9
				c0.2-0.7,0.4-1.3,0.4-1.8c0-0.1,0-0.3,0-0.4c0-0.1-0.1-0.1-0.1-0.1c-0.1,0-0.3,0.4-0.5,1.1C216.3,8.8,216.1,9.8,215.9,11.1z"/>
			<path class="st1" d="M222.4,13.5c-0.4,0.6-0.8,0.9-1,1.1c-0.2,0.2-0.4,0.3-0.6,0.3c-0.2,0-0.4-0.1-0.5-0.4
				c-0.1-0.3-0.2-0.7-0.2-1.2c-0.2,0.5-0.5,0.9-0.8,1.2c-0.3,0.3-0.6,0.4-0.8,0.4c-0.3,0-0.5-0.2-0.7-0.5c-0.2-0.3-0.3-0.7-0.3-1.1
				c0-0.9,0.2-1.7,0.7-2.5c0.5-0.8,1-1.1,1.6-1.1c0.2,0,0.3,0,0.4,0.1c0.1,0.1,0.2,0.2,0.3,0.3l0.6-3.5c0.5-0.2,0.9-0.2,1.1-0.2
				c0.1,0,0.1,0,0.1,0.1c0,0-0.1,0.5-0.2,1.2c-0.6,3.1-0.9,5-0.9,5.6c0,0.2,0,0.3,0.1,0.4c0,0.1,0.1,0.1,0.2,0.1c0.2,0,0.5-0.3,1-1
				V13.5z M219.2,13.8c0.3,0,0.6-0.3,0.8-1c0.3-0.7,0.4-1.3,0.4-1.9c0-0.2,0-0.4-0.1-0.6c-0.1-0.1-0.2-0.2-0.3-0.2
				c-0.3,0-0.5,0.3-0.8,1c-0.3,0.7-0.4,1.3-0.4,1.9c0,0.2,0,0.4,0.1,0.5C218.9,13.7,219,13.8,219.2,13.8z"/>
			<path class="st1" d="M224.6,13.5c-0.7,1-1.2,1.4-1.6,1.4c-0.2,0-0.4-0.1-0.5-0.4c-0.1-0.3-0.2-0.6-0.2-1c0-0.8,0.2-2,0.6-3.5
				l1.1-0.3h0.1l-0.4,1.9c-0.2,0.8-0.3,1.3-0.3,1.6c0,0.1,0,0.2,0.1,0.3c0,0.1,0.1,0.1,0.2,0.1c0.1,0,0.2-0.1,0.4-0.2
				c0.1-0.1,0.3-0.3,0.6-0.7V13.5z M224.5,7.4c0,0.9-0.3,1.4-0.8,1.4c-0.3,0-0.5-0.1-0.7-0.3c0.2-0.3,0.3-0.7,0.4-1.2
				c0.2,0.2,0.4,0.3,0.6,0.3C224.2,7.6,224.4,7.6,224.5,7.4z"/>
			<path class="st1" d="M229.1,13.5c-0.7,1-1.3,1.4-1.8,1.4c-0.2,0-0.4-0.1-0.5-0.3c-0.1-0.2-0.2-0.4-0.2-0.7c0-0.4,0.1-1.1,0.4-1.9
				c0.1-0.5,0.2-0.8,0.2-0.9c0-0.1,0-0.2-0.1-0.2c0,0-0.1,0-0.2,0.1c-0.1,0.1-0.1,0.1-0.2,0.2c-0.1,0.1-0.2,0.2-0.3,0.3
				c-0.1,0.1-0.2,0.2-0.3,0.4l-0.3,0.4c-0.1,0.2-0.2,0.4-0.2,0.6c0,0.3-0.1,0.6-0.1,0.9c0,0.2,0,0.5,0,0.8l-1,0.3c0-0.5,0-0.9,0-1.2
				c0-0.6,0.1-1.2,0.2-1.8c0.1-0.6,0.3-1.2,0.5-1.9l1.1-0.3c-0.2,0.8-0.4,1.4-0.5,1.9c0.5-0.7,0.9-1.2,1.2-1.5
				c0.3-0.3,0.6-0.4,0.8-0.4c0.2,0,0.3,0.1,0.4,0.2c0.1,0.2,0.2,0.3,0.2,0.6c0,0.4-0.1,1-0.4,1.9c-0.2,0.6-0.3,1-0.3,1.2
				c0,0.2,0.1,0.4,0.2,0.4c0.2,0,0.6-0.4,1.1-1.2V13.5z"/>
			<path class="st1" d="M233.5,13.5c-0.4,0.5-0.9,0.9-1.4,1.1c-0.3,1-0.6,1.8-1,2.3c-0.4,0.5-0.8,0.8-1.2,0.8
				c-0.2,0-0.4-0.1-0.6-0.3c-0.1-0.2-0.2-0.4-0.2-0.8c0-0.4,0.1-0.8,0.4-1.1c0.3-0.3,0.8-0.7,1.5-1l0.2-1.2
				c-0.3,0.4-0.5,0.7-0.8,0.9c-0.2,0.2-0.4,0.3-0.6,0.3c-0.2,0-0.5-0.2-0.6-0.5c-0.2-0.3-0.2-0.7-0.2-1.2c0-0.8,0.2-1.6,0.7-2.3
				c0.5-0.7,1-1.1,1.5-1.1c0.3,0,0.6,0.2,0.8,0.5c0.1-0.1,0.3-0.2,0.5-0.3l0.3-0.2h0.1c-0.1,0.5-0.2,0.9-0.3,1.4l-0.4,3
				c0.4-0.2,0.8-0.6,1.3-1.3V13.5z M231,15.1c-1,0.5-1.5,1-1.5,1.6c0,0.2,0,0.3,0.1,0.4c0.1,0.1,0.2,0.2,0.3,0.2
				c0.2,0,0.4-0.2,0.6-0.5C230.7,16.4,230.8,15.9,231,15.1z M230.6,13.6c0.2,0,0.4-0.2,0.6-0.5c0.2-0.3,0.3-0.7,0.4-1.3
				c0.1-0.5,0.1-0.9,0.1-1.1c0-0.2,0-0.3-0.1-0.5c-0.1-0.1-0.2-0.2-0.3-0.2c-0.3,0-0.6,0.3-0.8,0.8c-0.2,0.6-0.4,1.1-0.4,1.7
				c0,0.3,0,0.5,0.1,0.6C230.3,13.6,230.4,13.6,230.6,13.6z"/>
		</g>
		<path class="st2" d="M174.9,43v1.8h0.1c0.2,0,0.3,0,0.4-0.1c0.1-0.1,0.1-0.3,0.1-0.5v-0.6c0-0.2,0-0.4-0.1-0.5
			C175.3,43,175.1,43,174.9,43L174.9,43z M172.9,41.8h2c0.5,0,0.9,0,1.2,0.1c0.3,0.1,0.5,0.2,0.6,0.3c0.1,0.1,0.2,0.3,0.3,0.5
			c0,0.2,0.1,0.5,0.1,1v0.6c0,0.4,0,0.8-0.1,1c-0.1,0.2-0.3,0.4-0.5,0.5c-0.3,0.1-0.6,0.2-1,0.2h-0.5v2.8h-1.9V41.8"/>
		<path class="st2" d="M179.6,43v1.5c0.2,0,0.4,0,0.5-0.1c0.1-0.1,0.1-0.2,0.1-0.5v-0.4c0-0.2,0-0.4-0.1-0.4
			C180,43,179.8,43,179.6,43L179.6,43z M177.6,41.8h1.4c0.9,0,1.5,0,1.9,0.1c0.3,0.1,0.6,0.2,0.8,0.5c0.2,0.3,0.3,0.7,0.3,1.3
			c0,0.5-0.1,0.9-0.2,1.1c-0.1,0.2-0.4,0.3-0.8,0.3c0.4,0.1,0.6,0.2,0.8,0.4c0.1,0.1,0.2,0.3,0.2,0.4c0,0.1,0.1,0.5,0.1,1v1.8h-1.8
			v-2.3c0-0.4,0-0.6-0.1-0.7c-0.1-0.1-0.2-0.1-0.5-0.1v3.1h-1.9V41.8"/>
		<path class="st2" d="M185.2,43.6c0-0.3,0-0.5-0.1-0.6c0-0.1-0.1-0.1-0.2-0.1l-0.2,0.1c-0.1,0.1-0.1,0.3-0.1,0.6v3.2
			c0,0.4,0,0.6,0.1,0.7c0,0.1,0.1,0.1,0.2,0.1c0.1,0,0.2-0.1,0.3-0.2c0-0.1,0.1-0.4,0.1-0.8V43.6L185.2,43.6z M187.1,45.9
			c0,0.7,0,1.2,0,1.5c0,0.3-0.1,0.5-0.3,0.8c-0.2,0.2-0.4,0.4-0.8,0.5c-0.3,0.1-0.7,0.2-1.1,0.2c-0.4,0-0.8-0.1-1.1-0.2
			c-0.3-0.1-0.6-0.3-0.8-0.5c-0.2-0.2-0.3-0.5-0.3-0.8c0-0.3-0.1-0.8-0.1-1.5v-1.2c0-0.7,0-1.2,0-1.5c0-0.3,0.1-0.6,0.3-0.8
			c0.2-0.2,0.4-0.4,0.7-0.6c0.3-0.1,0.7-0.2,1.1-0.2c0.4,0,0.8,0.1,1.1,0.2c0.3,0.1,0.6,0.3,0.8,0.5c0.2,0.2,0.3,0.5,0.3,0.8
			c0,0.3,0.1,0.8,0.1,1.5V45.9"/>
		<path class="st2" d="M189.8,43v1.8h0.1c0.2,0,0.3,0,0.4-0.1c0.1-0.1,0.1-0.3,0.1-0.5v-0.6c0-0.2,0-0.4-0.1-0.5
			C190.2,43,190,43,189.8,43L189.8,43z M187.8,41.8h2c0.5,0,0.9,0,1.2,0.1c0.3,0.1,0.5,0.2,0.6,0.3c0.1,0.1,0.2,0.3,0.3,0.5
			c0.1,0.2,0.1,0.5,0.1,1v0.6c0,0.4,0,0.8-0.1,1c-0.1,0.2-0.3,0.4-0.5,0.5c-0.3,0.1-0.6,0.2-1,0.2h-0.5v2.8h-1.9V41.8"/>
		<polyline class="st2" points="192.6,41.8 195.8,41.8 195.8,43.2 194.5,43.2 194.5,44.5 195.7,44.5 195.7,45.8 194.5,45.8 
			194.5,47.4 195.9,47.4 195.9,48.7 192.6,48.7 192.6,41.8 		"/>
		<path class="st2" d="M198.4,43v1.5c0.2,0,0.4,0,0.5-0.1c0.1-0.1,0.1-0.2,0.1-0.5v-0.4c0-0.2,0-0.4-0.1-0.4
			C198.8,43,198.6,43,198.4,43L198.4,43z M196.5,41.8h1.4c0.9,0,1.5,0,1.9,0.1c0.3,0.1,0.6,0.2,0.8,0.5c0.2,0.3,0.3,0.7,0.3,1.3
			c0,0.5-0.1,0.9-0.2,1.1c-0.1,0.2-0.4,0.3-0.8,0.3c0.4,0.1,0.6,0.2,0.8,0.4c0.1,0.1,0.2,0.3,0.2,0.4c0,0.1,0,0.5,0,1v1.8H199v-2.3
			c0-0.4,0-0.6-0.1-0.7c-0.1-0.1-0.2-0.1-0.5-0.1v3.1h-1.9V41.8"/>
		<polyline class="st2" points="205.4,41.8 205.4,43.2 204.3,43.2 204.3,48.7 202.4,48.7 202.4,43.2 201.2,43.2 201.2,41.8 
			205.4,41.8 		"/>
		<polyline class="st2" points="207.8,41.8 207.8,48.7 205.9,48.7 205.9,41.8 207.8,41.8 		"/>
		<polyline class="st2" points="208.6,41.8 211.8,41.8 211.8,43.2 210.5,43.2 210.5,44.5 211.7,44.5 211.7,45.8 210.5,45.8 
			210.5,47.4 211.9,47.4 211.9,48.7 208.6,48.7 208.6,41.8 		"/>
		<path class="st2" d="M216.6,43.9h-1.8v-0.5c0-0.2,0-0.4-0.1-0.5l-0.2-0.1c-0.1,0-0.2,0-0.3,0.1c-0.1,0.1-0.1,0.2-0.1,0.4
			c0,0.2,0,0.4,0.1,0.5c0.1,0.1,0.2,0.3,0.5,0.4c0.9,0.5,1.4,0.8,1.6,1.2c0.2,0.3,0.3,0.8,0.3,1.5c0,0.5-0.1,0.8-0.2,1.1
			c-0.1,0.2-0.4,0.4-0.7,0.6c-0.4,0.2-0.8,0.2-1.2,0.2c-0.5,0-1-0.1-1.3-0.3c-0.4-0.2-0.6-0.4-0.7-0.7c-0.1-0.3-0.2-0.7-0.2-1.2
			v-0.5h1.8v0.8c0,0.3,0,0.4,0.1,0.5c0.1,0.1,0.1,0.1,0.3,0.1c0.1,0,0.2,0,0.3-0.1c0.1-0.1,0.1-0.2,0.1-0.4c0-0.4-0.1-0.7-0.2-0.8
			c-0.1-0.1-0.4-0.3-0.9-0.6c-0.5-0.3-0.8-0.5-1-0.6c-0.2-0.1-0.3-0.3-0.4-0.6c-0.1-0.2-0.2-0.5-0.2-0.9c0-0.5,0.1-0.9,0.2-1.2
			c0.1-0.2,0.4-0.4,0.7-0.6c0.3-0.1,0.7-0.2,1.2-0.2c0.5,0,0.9,0.1,1.3,0.2c0.4,0.1,0.6,0.3,0.7,0.6c0.1,0.2,0.2,0.6,0.2,1.2V43.9"
			/>
		<polyline class="st2" points="222.6,41.8 222.6,47.4 223.8,47.4 223.8,48.7 220.7,48.7 220.7,41.8 222.6,41.8 		"/>
		<polyline class="st2" points="227.5,41.8 227.5,43.2 226.3,43.2 226.3,48.7 224.4,48.7 224.4,43.2 223.2,43.2 223.2,41.8 
			227.5,41.8 		"/>
		<path class="st2" d="M229.8,43v4.6c0.3,0,0.5-0.1,0.5-0.2c0.1-0.1,0.1-0.4,0.1-0.8v-2.7c0-0.3,0-0.5,0-0.6l-0.1-0.2
			C230.2,43,230,43,229.8,43L229.8,43z M227.9,41.8h1.4c0.9,0,1.6,0,1.9,0.1c0.3,0.1,0.6,0.2,0.8,0.4c0.2,0.2,0.3,0.4,0.3,0.6
			c0,0.2,0.1,0.7,0.1,1.3v2.4c0,0.6,0,1-0.1,1.2c-0.1,0.2-0.2,0.4-0.3,0.5c-0.2,0.1-0.4,0.2-0.6,0.2c-0.2,0.1-0.6,0.1-1,0.1h-2.4
			V41.8"/>
		<path class="st1" d="M117,15.3c0.2,0.2,1.3-0.6,2.6-1.8c1.3-1.1,2.2-2.2,2-2.4c-0.2-0.2-1.3,0.6-2.6,1.8
			C117.8,14.1,116.9,15.2,117,15.3"/>
		<path class="st3" d="M120.2,12.1c0,0,2-2.5,1.3-7.2c0,0-0.4-2-2.2,0.5c0,0-0.4,1-1.5,1.7c0,0-1.1,0.8-1,1.4c0,0,0,0.6-0.6,0.5
			c0,0-1.4-0.1-2.3,1.2c0,0-0.4,0.5-0.2,0.8c0,0-0.3,0.3-0.2,0.6c0,0-0.2,0.3,0,0.5c0,0-0.4,0.6,0.1,0.9c0,0-0.1,0.3,0.2,0.5
			c0,0-0.1,0.6,0.5,0.7c0,0,3,0.4,3.8-0.6C118.2,13.6,119.4,13.5,120.2,12.1"/>
		<path class="st1" d="M120.2,12.1L120.2,12.1c0,0,1.5-1.8,1.5-5.3c0-0.6,0-1.2-0.1-1.9c0,0-0.2-0.8-0.7-0.8c-0.3,0-0.8,0.3-1.5,1.3
			c0,0-0.4,1-1.5,1.7c0,0-1,0.7-1,1.3l0,0.1l0,0c0,0.1,0,0.5-0.4,0.5l-0.1,0h0c-0.2,0-1.5,0-2.2,1.2c0,0-0.3,0.3-0.3,0.6l0,0.2
			c0,0-0.3,0.2-0.3,0.5l0,0.1c0,0-0.1,0.1-0.1,0.3l0.1,0.2c0,0-0.2,0.2-0.2,0.5c0,0.1,0.1,0.3,0.2,0.4l0,0.1c0,0.1,0,0.3,0.2,0.4
			l0,0c0,0.1,0,0.6,0.5,0.6c0,0,0.6,0.1,1.3,0.1c0.9,0,2-0.1,2.4-0.6C118.2,13.6,119.4,13.5,120.2,12.1c-0.9,1.4-2.1,1.5-2.1,1.5
			c-0.4,0.5-1.5,0.6-2.4,0.6c-0.7,0-1.3-0.1-1.3-0.1c-0.5,0-0.5-0.5-0.5-0.6l0,0c-0.2-0.1-0.2-0.3-0.2-0.4l0-0.1
			c-0.2-0.1-0.2-0.3-0.2-0.4c0-0.2,0.2-0.5,0.2-0.5l-0.1-0.2c0-0.1,0.1-0.3,0.1-0.3l0-0.1c0-0.2,0.3-0.5,0.3-0.5l0-0.2
			c0-0.3,0.3-0.6,0.3-0.6c0.7-1.1,2-1.2,2.2-1.2h0l0.1,0c0.4,0,0.4-0.4,0.4-0.5l0,0l0-0.1c0-0.6,1-1.3,1-1.3
			c1.1-0.7,1.5-1.7,1.5-1.7c0.7-1,1.2-1.3,1.5-1.3c0.5,0,0.7,0.8,0.7,0.8c0.1,0.7,0.1,1.3,0.1,1.9C121.7,10.3,120.2,12.1,120.2,12.1
			"/>
		<path class="st4" d="M120.2,12.1c0,0,2.5-3.4,1-7.9c0,0-0.9-0.4-1.8,1c0,0-0.2,0.8-1.3,1.6c0,0-1.4,0.9-1.1,1.8c0,0,0,0.4-1.1,0.4
			c0,0-2.3,0.6-2,1.8c0,0-0.6,0.6-0.2,1.1c0,0-0.4,0.8,0.1,0.9c0,0-0.1,0.5,0.2,0.5c0,0-0.2,0.7,0.8,0.7c0,0-1.8-4.4,2-4.6
			c0,0,0.7,0.1,1.1-1.2c0,0,0.2-0.6,1-1.1c0,0,1.3-1.1,1.4-2.1c0,0,0.5-1,0.9-0.2C121,5,122.4,6.9,120.2,12.1"/>
		<path class="st5" d="M119.6,12.4c0,0,1.3-1.6,0.8-4.3c0,0-0.3-1.2-1.3,0.3c0,0-0.2,0.6-0.9,1c0,0-0.7,0.5-0.6,0.9
			c0,0,0,0.4-0.3,0.3c0,0-0.9,0-1.4,0.7c0,0-0.3,0.3-0.1,0.5c0,0-0.2,0.1-0.1,0.4c0,0-0.2,0.2,0,0.3c0,0-0.3,0.3,0,0.5
			c0,0-0.1,0.2,0.1,0.3c0,0,0,0.4,0.3,0.4c0,0,1.8,0.2,2.3-0.3C118.4,13.3,119.1,13.2,119.6,12.4"/>
		<path class="st1" d="M119.6,12.8c0,0-0.2-3.3,0.5-4.3c0,0,1.9-2.6,1-4.3l0-0.1c0.8,1.7-1,4.3-1,4.3
			C119.5,9.4,119.6,12.7,119.6,12.8L119.6,12.8"/>
		<path class="st1" d="M119.9,8.8c0,0-1-2.2-1.5-2.1l0-0.1c0.5-0.1,1.5,2,1.5,2L119.9,8.8"/>
		<path class="st1" d="M120.4,7.9c0,0-0.4-1.8-1.2-2.2l0-0.1C120.1,6,120.5,7.8,120.4,7.9L120.4,7.9"/>
		<path class="st1" d="M120.9,7c0,0,0-2.5-0.7-2.6l0,0C121,4.5,120.9,6.9,120.9,7L120.9,7"/>
		<path class="st1" d="M119.6,12c0,0,1.9-2.4,1.6-6l0-0.1C121.6,9.5,119.7,11.9,119.6,12L119.6,12"/>
		<path class="st1" d="M119.7,10c0,0-1.7-2.9-2.1-2.6l0-0.1c0.3-0.3,2,2.5,2,2.5L119.7,10"/>
		<path class="st1" d="M119.6,12.2c0,0-1.1-0.4-1.1-1.4c0,0,0.1-1-1.5-2.4l0-0.1c1.5,1.4,1.5,2.4,1.5,2.4
			C118.5,11.7,119.6,12.1,119.6,12.2L119.6,12.2"/>
		<path class="st1" d="M119.5,12.7c0,0-1.3-0.5-1.4-1.4c0,0,0.1-1.7-1.3-2.3l0-0.1c1.4,0.7,1.3,2.3,1.3,2.3
			C118.2,12.1,119.5,12.6,119.5,12.7L119.5,12.7"/>
		<path class="st1" d="M119.4,12.9c0,0-3.4-0.7-3.4-1.6c0,0-0.2-0.8-2.2-0.7l0-0.1c1.9-0.1,2.2,0.7,2.2,0.7
			C116.1,12.2,119.4,12.8,119.4,12.9L119.4,12.9"/>
		<path class="st1" d="M118.7,12.7c0,0-2,0.6-2.4,0.4c0,0-2.4,0.2-2.4,0.4l0-0.1c0-0.2,2.4-0.4,2.4-0.4
			C116.7,13.2,118.7,12.7,118.7,12.7L118.7,12.7"/>
		<path class="st1" d="M119,12.8c0,0-1.2,0.9-1.8,0.8c0,0-1.4,0.2-1.8,0.5l0-0.1c0.4-0.3,1.8-0.5,1.8-0.5
			C117.8,13.6,119,12.8,119,12.8L119,12.8"/>
		<path class="st0" d="M120.1,4.8c0,0,0.1,0,0.3-0.1c0.1-0.1,0.2-0.2,0.2-0.2c0,0-0.1,0-0.3,0.2C120.1,4.7,120,4.8,120.1,4.8"/>
		<polyline class="st0" points="119.4,6 119.6,6 119.6,5.8 119.4,5.8 119.4,6 		"/>
		<polyline class="st0" points="118.8,7 119,7.1 118.9,6.9 118.7,6.8 118.8,7 		"/>
		<polyline class="st0" points="121.1,4.9 121.3,5 121.2,4.8 121.1,4.7 121.1,4.9 		"/>
		<polyline class="st0" points="121.3,7.5 121.5,7.4 121.6,7.2 121.4,7.3 121.3,7.5 		"/>
		<polyline class="st0" points="121.1,8.6 121.3,8.5 121.3,8.4 121.2,8.4 121.1,8.6 		"/>
		<path class="st1" d="M120.1,12.3c0,0,2.1-2.7,1.3-7.1c0,0-0.4-2.1-2.2,0.4c0,0-0.4,1-1.4,1.7c0,0-1.2,0.8-1,1.4c0,0,0,0.6-0.6,0.5
			c0,0-1.4-0.1-2.3,1.2c0,0-0.5,0.4-0.2,0.8c0,0-0.4,0.3-0.2,0.6c0,0-0.3,0.3,0,0.5c0,0-0.5,0.5,0.1,0.9c0,0-0.1,0.3,0.2,0.5
			c0,0-0.1,0.6,0.5,0.7c0,0,3,0.4,3.8-0.6C118.1,13.8,119.3,13.7,120.1,12.3l0.1-0.3c-0.9,1.4-2.1,1.6-2.1,1.6
			c-0.8,0.9-3.8,0.6-3.8,0.6c-0.6,0-0.5-0.7-0.5-0.7c-0.3-0.2-0.2-0.5-0.2-0.5c-0.5-0.4-0.1-0.9-0.1-0.9c-0.3-0.3,0-0.5,0-0.5
			c-0.2-0.3,0.2-0.6,0.2-0.6c-0.3-0.3,0.2-0.8,0.2-0.8c0.8-1.2,2.3-1.1,2.3-1.1c0.6,0.1,0.6-0.5,0.6-0.5c-0.2-0.7,1-1.4,1-1.4
			c1.1-0.8,1.4-1.7,1.4-1.7c1.8-2.5,2.2-0.5,2.2-0.5c0.8,4.4-1.4,7.2-1.4,7.2L120.1,12.3"/>
		<path class="st3" d="M120.6,12.4c0,0,2.7-1.8,7.6-0.9c0,0,2.1,0.5-0.6,2.1c0,0-1,0.3-1.9,1.3c0,0-0.9,1-1.6,0.8
			c0,0-0.7-0.1-0.6,0.5c0,0,0,1.4-1.4,2.1c0,0-0.6,0.4-0.8,0.2c0,0-0.4,0.3-0.6,0.2c0,0-0.4,0.2-0.6,0c0,0-0.6,0.4-0.9-0.1
			c0,0-0.3,0.1-0.5-0.2c0,0-0.6,0-0.7-0.5c0,0-0.2-2.9,0.8-3.6C118.9,14.4,119.1,13.2,120.6,12.4"/>
		<path class="st1" d="M120.6,12.4L120.6,12.4c0,0,1.7-1.1,4.9-1.1c0.8,0,1.7,0.1,2.7,0.3c0,0,0.8,0.2,0.8,0.7
			c0,0.3-0.3,0.8-1.4,1.4c0,0-1,0.3-1.9,1.3c0,0-0.8,0.9-1.4,0.9l-0.1,0H124c-0.2,0-0.5,0-0.5,0.4l0,0.1c0,0,0,1.4-1.4,2.1
			c0,0-0.4,0.2-0.6,0.2l-0.2-0.1c0,0-0.3,0.2-0.5,0.2l-0.1,0c0,0-0.1,0.1-0.3,0.1c-0.1,0-0.2,0-0.3-0.1c0,0-0.2,0.1-0.5,0.1
			c-0.2,0-0.3-0.1-0.4-0.2l-0.1,0c-0.1,0-0.3,0-0.4-0.2h0c-0.1,0-0.6,0-0.7-0.5c0,0,0-0.3,0-0.7c0-0.9,0.1-2.4,0.8-2.9
			C118.9,14.4,119.1,13.2,120.6,12.4c-1.5,0.8-1.7,1.9-1.7,1.9c-0.7,0.5-0.8,2-0.8,2.9c0,0.4,0,0.7,0,0.7c0,0.5,0.6,0.5,0.7,0.5h0
			c0.1,0.2,0.3,0.2,0.4,0.2l0.1,0c0.1,0.2,0.3,0.2,0.4,0.2c0.2,0,0.5-0.1,0.5-0.1c0.1,0.1,0.2,0.1,0.3,0.1c0.2,0,0.3-0.1,0.3-0.1
			l0.1,0c0.2,0,0.5-0.2,0.5-0.2l0.2,0.1c0.3,0,0.6-0.2,0.6-0.2c1.3-0.7,1.4-2.1,1.4-2.1l0-0.1c0-0.4,0.4-0.4,0.5-0.4h0.1l0.1,0
			c0.6,0,1.4-0.9,1.4-0.9c0.8-1,1.9-1.3,1.9-1.3c1.1-0.6,1.4-1.1,1.4-1.4c0-0.5-0.8-0.7-0.8-0.7c-1-0.2-1.9-0.3-2.7-0.3
			C122.3,11.3,120.6,12.4,120.6,12.4"/>
		<path class="st4" d="M120.5,12.5c0,0,3.7-2.2,8.3-0.5c0,0,0.4,0.9-1.2,1.7c0,0-0.8,0.1-1.8,1.2c0,0-1,1.3-1.9,1c0,0-0.5-0.1-0.5,1
			c0,0-0.7,2.2-2,1.8c0,0-0.7,0.5-1.2,0.1c0,0-0.8,0.4-0.9-0.1c0,0-0.5,0.1-0.5-0.2c0,0-0.8,0.2-0.7-0.8c0,0,4.5,1.9,4.9-1.6
			c0,0,0-0.7,1.3-1c0,0,0.7-0.1,1.2-0.9c0,0,1.2-1.2,2.3-1.2c0,0,1-0.4,0.3-0.8C128,12.1,126.1,10.7,120.5,12.5"/>
		<path class="st5" d="M120.2,13c0,0,1.8-1.1,4.5-0.5c0,0,1.3,0.3-0.4,1.3c0,0-0.6,0.2-1.1,0.8c0,0-0.5,0.7-0.9,0.5
			c0,0-0.4-0.1-0.3,0.3c0,0,0,0.8-0.8,1.3c0,0-0.3,0.3-0.5,0.1c0,0-0.2,0.2-0.4,0.1c0,0-0.2,0.2-0.3,0c0,0-0.3,0.3-0.5-0.1
			c0,0-0.2,0-0.3-0.1c0,0-0.4,0-0.4-0.3c0,0-0.1-1.7,0.5-2.1C119.2,14.1,119.3,13.4,120.2,13"/>
		<path class="st1" d="M119.8,13c0,0,3.5,0.3,4.5-0.2c0,0,2.8-1.6,4.6-0.8l0.1,0c-1.8-0.9-4.6,0.8-4.6,0.8
			C123.3,13.3,119.8,13,119.8,13L119.8,13"/>
		<path class="st1" d="M123.9,12.9c0,0,2.2,1.1,2.1,1.6l0.1,0c0.1-0.5-2-1.5-2-1.5L123.9,12.9"/>
		<path class="st1" d="M124.9,12.5c0,0,1.9,0.5,2.2,1.3l0.1,0C126.9,12.9,125,12.5,124.9,12.5L124.9,12.5"/>
		<path class="st1" d="M125.9,12.1c0,0,2.6,0.1,2.7,0.8l0,0C128.5,12.1,126,12.1,125.9,12.1L125.9,12.1"/>
		<path class="st1" d="M120.6,13c0,0,2.6-1.7,6.3-1.2l0.1,0C123.3,11.3,120.7,13,120.6,13L120.6,13"/>
		<path class="st1" d="M122.7,13.1c0,0,3,1.8,2.6,2.1l0.1,0c0.3-0.3-2.5-2-2.5-2L122.7,13.1"/>
		<path class="st1" d="M120.4,13.1c0,0,0.4,1.1,1.4,1.2c0,0,1.1,0,2.5,1.5l0.1,0c-1.4-1.5-2.5-1.5-2.5-1.5
			C120.8,14.1,120.5,13,120.4,13.1L120.4,13.1"/>
		<path class="st1" d="M119.9,13.1c0,0,0.5,1.3,1.4,1.4c0,0,1.7,0,2.4,1.3l0.1,0c-0.6-1.4-2.4-1.3-2.4-1.3
			C120.4,14.4,119.9,13.1,119.9,13.1L119.9,13.1"/>
		<path class="st1" d="M121.3,14.6c0,0-0.5,0.6,0.2,1.3c0,0,1.6,1.5,1.1,2.2l0.1,0c0.5-0.7-1.1-2.2-1.1-2.2
			C120.8,15.1,121.4,14.5,121.3,14.6L121.3,14.6"/>
		<path class="st1" d="M119.6,13.2c0,0,0.5,3.2,1.5,3.3c0,0,0.9,0.3,0.6,2.1l0.1,0c0.2-1.8-0.6-2.1-0.6-2.1
			C120.2,16.4,119.7,13.2,119.6,13.2L119.6,13.2"/>
		<path class="st1" d="M120.9,16.4c0,0,0.1,2.2-0.2,2.4l0.1,0C121,18.6,120.9,16.4,120.9,16.4L120.9,16.4"/>
		<path class="st1" d="M120.4,15.7c0,0,0.2,2.7-0.2,3.1l0.1,0C120.7,18.4,120.4,15.7,120.4,15.7L120.4,15.7"/>
		<path class="st1" d="M120,14.9c0,0-0.4,3.4-0.7,3.7l0.1,0C119.7,18.3,120.1,14.9,120,14.9L120,14.9"/>
		<path class="st1" d="M119.8,13.9c0,0-0.7,1.9-0.5,2.3c0,0-0.3,2.3-0.6,2.3l0.1,0c0.2,0,0.6-2.3,0.6-2.3
			C119.2,15.7,119.9,13.8,119.8,13.9L119.8,13.9"/>
		<path class="st1" d="M119.7,13.6c0,0-1,1.1-0.9,1.6c0,0-0.3,1.3-0.7,1.7l0.1,0c0.3-0.4,0.6-1.7,0.6-1.7
			C118.8,14.7,119.8,13.5,119.7,13.6L119.7,13.6"/>
		<path class="st1" d="M121.2,14.8c0,0,0.8,1.1,1.3,1.1c0,0,0.9,0.3,0.8,0.9l0.1,0c0.1-0.6-0.8-0.9-0.8-0.9c-0.5,0-1.3-1-1.3-1
			L121.2,14.8"/>
		<path class="st0" d="M128.1,13c0,0,0-0.1,0.2-0.2c0.1-0.1,0.2-0.2,0.3-0.1c0,0-0.1,0.1-0.2,0.2C128.3,13,128.2,13,128.1,13"/>
		<polyline class="st0" points="126.9,13.6 126.9,13.4 127.1,13.4 127.1,13.6 126.9,13.6 		"/>
		<polyline class="st0" points="125.7,14.1 125.7,13.9 125.9,14 126,14.2 125.7,14.1 		"/>
		<polyline class="st0" points="124.4,15.2 124.4,15 124.6,15 124.6,15.2 124.4,15.2 		"/>
		<polyline class="st0" points="123.2,16.3 123.2,16 123.4,16 123.4,16.3 123.2,16.3 		"/>
		<path class="st0" d="M122.5,17.6c0,0,0.1-0.1,0.3-0.3c0.2-0.1,0.3-0.3,0.3-0.2c0,0-0.1,0.1-0.3,0.3
			C122.6,17.5,122.5,17.6,122.5,17.6"/>
		<polyline class="st0" points="121.7,18.2 121.7,18 121.9,18 121.9,18.2 121.7,18.2 		"/>
		<polyline class="st0" points="120.2,18.7 120.5,18.5 120.5,18.5 120.3,18.6 120.2,18.7 		"/>
		<polyline class="st0" points="118.4,18.2 118.5,18 118.7,17.9 118.5,18.1 118.4,18.2 		"/>
		<polyline class="st0" points="128.1,12 128,11.8 128.2,11.9 128.3,12.1 128.1,12 		"/>
		<polyline class="st0" points="125.4,11.7 125.5,11.5 125.7,11.4 125.6,11.6 125.4,11.7 		"/>
		<polyline class="st0" points="124.3,11.8 124.4,11.7 124.5,11.6 124.4,11.7 124.3,11.8 		"/>
		<polyline class="st0" points="119.6,18.5 119.6,18.2 119.8,18.2 119.8,18.4 119.6,18.5 		"/>
		<path class="st1" d="M120.3,12.5c0,0,2.9-1.8,7.5-0.8c0,0,2.2,0.5-0.6,2c0,0-1,0.3-1.9,1.3c0,0-0.9,1.1-1.6,0.9
			c0,0-0.7-0.1-0.6,0.5c0,0,0,1.4-1.4,2.1c0,0-0.5,0.4-0.8,0.2c0,0-0.3,0.4-0.6,0.2c0,0-0.3,0.3-0.6-0.1c0,0-0.5,0.4-0.9-0.1
			c0,0-0.3,0.1-0.5-0.2c0,0-0.6,0-0.7-0.5c0,0-0.2-2.9,0.8-3.6C118.6,14.4,118.8,13.3,120.3,12.5l0.3-0.1c-1.5,0.8-1.7,1.9-1.7,1.9
			c-1,0.7-0.8,3.6-0.8,3.6c0,0.5,0.7,0.5,0.7,0.5c0.2,0.3,0.5,0.2,0.5,0.2c0.4,0.5,0.9,0.1,0.9,0.1c0.3,0.3,0.6,0.1,0.6,0.1
			c0.3,0.2,0.6-0.2,0.6-0.2c0.3,0.3,0.9-0.1,0.9-0.1c1.3-0.7,1.3-2.1,1.3-2.1c-0.1-0.6,0.6-0.5,0.6-0.5c0.7,0.2,1.6-0.9,1.6-0.9
			c0.9-1,1.9-1.3,1.9-1.3c2.8-1.6,0.6-2.1,0.6-2.1c-4.6-1-7.6,0.9-7.6,0.9L120.3,12.5"/>
		<path class="st1" d="M121.1,11.7c0.3-0.3,0.6-0.6,1-0.8c0.2-0.1,0.5-0.2,0.7-0.3c0.8-0.2,1.5-0.1,2.2,0l0,0l0,0
			c-0.7-0.1-1.4-0.2-2.2,0C122.2,10.8,121.6,11.2,121.1,11.7L121.1,11.7L121.1,11.7"/>
		<path class="st1" d="M121,11.6c0.3-0.3,0.5-0.5,0.7-0.8c0.1-0.2,0.2-0.4,0.2-0.6c0.2-0.7,0-1.3-0.1-2l0,0l0,0
			c0.1,0.7,0.3,1.4,0.1,2.1C121.9,10.8,121.5,11.3,121,11.6L121,11.6L121,11.6"/>
		<path class="st6" d="M118.3,22.7v4c0.5,0,0.9-0.1,1.1-0.2c0.2-0.1,0.3-0.6,0.3-1.4v-1c0-0.6-0.1-0.9-0.3-1.1
			C119.3,22.8,118.9,22.7,118.3,22.7L118.3,22.7z M113.5,19.6h3.4c2.3,0,3.8,0.1,4.6,0.3c0.8,0.2,1.5,0.6,2,1.3
			c0.5,0.7,0.8,1.8,0.8,3.3c0,1.4-0.2,2.3-0.5,2.8c-0.4,0.5-1.1,0.8-2.1,0.9c1,0.2,1.6,0.5,1.9,0.9c0.3,0.4,0.5,0.7,0.6,1.1
			c0.1,0.3,0.1,1.2,0.1,2.7v4.7h-4.5v-6c0-1-0.1-1.6-0.2-1.8c-0.2-0.2-0.6-0.4-1.2-0.4v8.1h-4.9V19.6"/>
		<polyline class="st6" points="126.2,19.6 134.4,19.6 134.4,23.2 131.1,23.2 131.1,26.6 134.1,26.6 134.1,30 131.1,30 131.1,37.6 
			126.2,37.6 126.2,19.6 		"/>
		<polyline class="st6" points="135.6,19.6 143.7,19.6 143.7,23.2 140.4,23.2 140.4,26.6 143.5,26.6 143.5,30 140.4,30 140.4,34 
			144,34 144,37.6 135.6,37.6 135.6,19.6 		"/>
		<path class="st6" d="M156.7,27.4h-4.9v-3.1c0-0.9,0-1.5-0.2-1.7c-0.1-0.2-0.3-0.3-0.7-0.3c-0.4,0-0.7,0.1-0.8,0.4
			c-0.1,0.3-0.2,0.9-0.2,1.8v8.3c0,0.9,0.1,1.4,0.2,1.7c0.1,0.3,0.3,0.4,0.7,0.4c0.4,0,0.6-0.1,0.7-0.4c0.1-0.3,0.2-0.9,0.2-1.9
			v-2.3h4.9v0.7c0,1.9-0.1,3.2-0.4,4c-0.3,0.8-0.9,1.5-1.8,2c-0.9,0.6-2.1,0.9-3.5,0.9c-1.4,0-2.6-0.3-3.5-0.7
			c-0.9-0.5-1.5-1.2-1.8-2.1c-0.3-0.9-0.5-2.2-0.5-3.9V26c0-1.3,0-2.3,0.1-2.9c0.1-0.6,0.4-1.3,0.8-1.9c0.5-0.6,1.1-1.1,1.9-1.4
			c0.8-0.4,1.7-0.5,2.8-0.5c1.4,0,2.6,0.3,3.5,0.8c0.9,0.5,1.5,1.2,1.8,2c0.3,0.8,0.4,2,0.4,3.7V27.4"/>
		<polyline class="st6" points="168.3,19.6 168.3,23.2 165.4,23.2 165.4,37.6 160.5,37.6 160.5,23.2 157.6,23.2 157.6,19.6 
			168.3,19.6 		"/>
		<polyline class="st6" points="178.4,19.6 178.4,34 181.4,34 181.4,37.6 173.5,37.6 173.5,19.6 178.4,19.6 		"/>
		<polyline class="st6" points="187.4,19.6 187.4,37.6 182.5,37.6 182.5,19.6 187.4,19.6 		"/>
		<path class="st6" d="M200.8,19.6l-2.5,18H191l-2.8-18h5.1c0.6,4.9,1,9.1,1.3,12.6c0.3-3.5,0.5-6.6,0.8-9.2l0.3-3.3H200.8"/>
		<polyline class="st6" points="206.5,19.6 206.5,37.6 201.7,37.6 201.7,19.6 206.5,19.6 		"/>
		<polyline class="st6" points="219.3,19.6 219.3,37.6 215,37.6 212.5,29.4 212.5,37.6 208.5,37.6 208.5,19.6 212.5,19.6 
			215.2,27.7 215.2,19.6 219.3,19.6 		"/>
		<path class="st6" d="M232.4,26.2h-4.8v-1.6c0-1,0-1.7-0.1-1.9c-0.1-0.3-0.3-0.4-0.7-0.4c-0.3,0-0.5,0.1-0.6,0.3
			c-0.1,0.2-0.2,0.8-0.2,1.7v8.6c0,0.8,0.1,1.3,0.2,1.6c0.1,0.3,0.3,0.4,0.6,0.4c0.3,0,0.6-0.1,0.7-0.4c0.1-0.3,0.2-0.9,0.2-1.7
			v-2.1h-1V28h5.7v9.6h-3.1l-0.5-1.3c-0.3,0.6-0.8,1-1.3,1.2c-0.5,0.3-1.1,0.4-1.8,0.4c-0.8,0-1.6-0.2-2.3-0.6
			c-0.7-0.4-1.2-0.8-1.6-1.4c-0.4-0.6-0.6-1.1-0.7-1.8c-0.1-0.6-0.1-1.5-0.1-2.8v-5.3c0-1.7,0.1-3,0.3-3.7c0.2-0.8,0.7-1.5,1.6-2.1
			c0.9-0.7,2.1-1,3.5-1c1.4,0,2.6,0.3,3.5,0.8c0.9,0.6,1.5,1.2,1.8,2c0.3,0.8,0.4,1.9,0.4,3.4V26.2"/>
		<path class="st6" d="M96.7,22.7v4.6c0.1,0,0.3,0,0.4,0c0.4,0,0.8-0.1,0.9-0.3c0.2-0.2,0.3-0.6,0.3-1.3v-1.5c0-0.6-0.1-1-0.3-1.2
			C97.7,22.8,97.3,22.7,96.7,22.7L96.7,22.7z M91.8,19.6h4.9c1.3,0,2.3,0.1,3.1,0.3c0.7,0.2,1.2,0.5,1.6,0.9
			c0.4,0.4,0.6,0.8,0.7,1.4c0.1,0.5,0.2,1.4,0.2,2.5v1.6c0,1.1-0.1,2-0.4,2.5c-0.2,0.5-0.7,0.9-1.4,1.2c-0.7,0.3-1.5,0.4-2.6,0.4
			h-1.3v7.2h-4.9V19.6"/>
		<polyline class="st6" points="103.7,19.6 111.8,19.6 111.8,23.2 108.5,23.2 108.5,26.6 111.6,26.6 111.6,30 108.5,30 108.5,34 
			112.1,34 112.1,37.6 103.7,37.6 103.7,19.6 		"/>
	</g>
</g>
</svg>
